<svg viewBox="0 0 400 300" xmlns="http://www.w3.org/2000/svg"><path d="m195.25 88v124a20.66 20.66 0 1 1 -41.32 0v-1.74a22.75 22.75 0 0 1 -3 .2 23.66 23.66 0 0 1 -23.64-23.65 23.37 23.37 0 0 1 4.63-14 23.66 23.66 0 0 1 0-45.5 23.37 23.37 0 0 1 -4.63-14 23.66 23.66 0 0 1 23.64-23.65 22.75 22.75 0 0 1 3 .2v-1.86a20.66 20.66 0 1 1 41.32 0z" fill="#68e1fd"/><path d="m174.59 233.65a21.68 21.68 0 0 1 -21.66-21.65v-.63c-.66.06-1.32.09-2 .09a24.67 24.67 0 0 1 -24.64-24.65 24.31 24.31 0 0 1 4-13.5 24.65 24.65 0 0 1 0-46.58 24.31 24.31 0 0 1 -4-13.5 24.67 24.67 0 0 1 24.64-24.65c.67 0 1.33 0 2 .09v-.67a21.66 21.66 0 1 1 43.32 0v124a21.69 21.69 0 0 1 -21.66 21.65zm-20.66-24.41a1 1 0 0 1 1 1v1.76a19.66 19.66 0 1 0 39.32 0v-124a19.66 19.66 0 1 0 -39.32 0v1.74a1 1 0 0 1 -1.14 1 22.36 22.36 0 0 0 -2.85-.19 22.67 22.67 0 0 0 -22.64 22.65 22.29 22.29 0 0 0 4.43 13.44 1 1 0 0 1 -.53 1.56 22.66 22.66 0 0 0 0 43.58 1 1 0 0 1 .53 1.56 22.29 22.29 0 0 0 -4.43 13.44 22.67 22.67 0 0 0 22.64 22.65 22.36 22.36 0 0 0 2.85-.19z" fill="#093f68"/><path d="m204.75 88v124a20.66 20.66 0 1 0 41.32 0v-1.74a22.75 22.75 0 0 0 3 .2 23.66 23.66 0 0 0 23.64-23.65 23.37 23.37 0 0 0 -4.63-14 23.66 23.66 0 0 0 0-45.5 23.37 23.37 0 0 0 4.63-14 23.66 23.66 0 0 0 -23.64-23.65 22.75 22.75 0 0 0 -3 .2v-1.86a20.66 20.66 0 1 0 -41.32 0z" fill="#68e1fd"/><path d="m225.41 233.65a21.69 21.69 0 0 1 -21.66-21.65v-124a21.66 21.66 0 1 1 43.32 0v.63c.66-.06 1.32-.09 2-.09a24.67 24.67 0 0 1 24.64 24.65 24.31 24.31 0 0 1 -4 13.5 24.65 24.65 0 0 1 0 46.58 24.31 24.31 0 0 1 4 13.5 24.67 24.67 0 0 1 -24.64 24.65c-.67 0-1.33 0-2-.09v.67a21.68 21.68 0 0 1 -21.66 21.65zm0-165.3a19.67 19.67 0 0 0 -19.66 19.65v124a19.66 19.66 0 1 0 39.32 0v-1.74a1 1 0 0 1 1.14-1 22.36 22.36 0 0 0 2.85.19 22.67 22.67 0 0 0 22.64-22.65 22.29 22.29 0 0 0 -4.43-13.44 1 1 0 0 1 .53-1.56 22.66 22.66 0 0 0 0-43.58 1 1 0 0 1 -.53-1.56 22.29 22.29 0 0 0 4.43-13.44 22.67 22.67 0 0 0 -22.64-22.65 22.36 22.36 0 0 0 -2.85.19 1 1 0 0 1 -1.14-1v-1.76a19.69 19.69 0 0 0 -19.66-19.65z" fill="#093f68"/><circle cx="248.7" cy="193.46" fill="#093f68" r="3.55"/><path d="m248.7 198a4.55 4.55 0 1 1 4.55-4.55 4.55 4.55 0 0 1 -4.55 4.55zm0-7.09a2.55 2.55 0 1 0 2.55 2.54 2.54 2.54 0 0 0 -2.55-2.53z" fill="#093f68"/><circle cx="216.06" cy="192.12" fill="#093f68" r="3.55"/><path d="m216.06 196.66a4.55 4.55 0 1 1 4.54-4.54 4.55 4.55 0 0 1 -4.54 4.54zm0-7.09a2.55 2.55 0 1 0 2.54 2.55 2.55 2.55 0 0 0 -2.54-2.55z" fill="#093f68"/><circle cx="163.83" cy="200.35" fill="#093f68" r="3.55"/><path d="m163.83 204.9a4.55 4.55 0 1 1 4.55-4.55 4.55 4.55 0 0 1 -4.55 4.55zm0-7.09a2.55 2.55 0 1 0 2.55 2.54 2.55 2.55 0 0 0 -2.55-2.54z" fill="#093f68"/><circle cx="145.67" cy="171.39" fill="#093f68" r="3.55"/><path d="m145.67 175.93a4.55 4.55 0 1 1 4.55-4.54 4.55 4.55 0 0 1 -4.55 4.54zm0-7.09a2.55 2.55 0 1 0 2.55 2.55 2.55 2.55 0 0 0 -2.55-2.55z" fill="#093f68"/><circle cx="128.53" cy="147.99" fill="#093f68" r="3.55"/><path d="m128.53 152.53a4.55 4.55 0 1 1 4.55-4.54 4.54 4.54 0 0 1 -4.55 4.54zm0-7.09a2.55 2.55 0 1 0 2.55 2.55 2.55 2.55 0 0 0 -2.55-2.55z" fill="#093f68"/><circle cx="146.6" cy="116.46" fill="#093f68" r="3.55"/><path d="m146.6 121a4.55 4.55 0 1 1 4.54-4.55 4.55 4.55 0 0 1 -4.54 4.55zm0-7.09a2.55 2.55 0 1 0 2.54 2.54 2.55 2.55 0 0 0 -2.54-2.53z" fill="#093f68"/><circle cx="165.06" cy="93.93" fill="#093f68" r="3.55"/><path d="m165.06 98.47a4.55 4.55 0 1 1 4.54-4.54 4.55 4.55 0 0 1 -4.54 4.54zm0-7.09a2.55 2.55 0 1 0 2.54 2.55 2.55 2.55 0 0 0 -2.54-2.55z" fill="#093f68"/><path d="m248.94 193.12a1 1 0 0 1 -.94-.66l-8.52-23.62h-18.72a1 1 0 0 1 0-2h19.42a1 1 0 0 1 .94.66l8.76 24.28a1 1 0 0 1 -.6 1.28 1 1 0 0 1 -.34.06z" fill="#093f68"/><rect fill="#fff" height="47.71" rx="3.63" width="47.71" x="176.43" y="126.14"/><g fill="#093f68"><path d="m220.51 174.85h-40.45a4.62 4.62 0 0 1 -4.63-4.62v-40.46a4.62 4.62 0 0 1 4.63-4.62h40.45a4.63 4.63 0 0 1 4.63 4.62v40.46a4.63 4.63 0 0 1 -4.63 4.62zm-40.45-47.7a2.62 2.62 0 0 0 -2.63 2.62v40.46a2.62 2.62 0 0 0 2.63 2.62h40.45a2.62 2.62 0 0 0 2.63-2.62v-40.46a2.62 2.62 0 0 0 -2.63-2.62z"/><rect height="31.55" rx="2.4" width="31.55" x="184.51" y="134.23"/><path d="m213.66 166.77h-26.75a3.4 3.4 0 0 1 -3.4-3.4v-26.74a3.4 3.4 0 0 1 3.4-3.4h26.75a3.4 3.4 0 0 1 3.4 3.4v26.74a3.4 3.4 0 0 1 -3.4 3.4zm-26.75-31.54a1.4 1.4 0 0 0 -1.4 1.4v26.74a1.4 1.4 0 0 0 1.4 1.4h26.75a1.4 1.4 0 0 0 1.4-1.4v-26.74a1.4 1.4 0 0 0 -1.4-1.4z"/><path d="m242.56 136.23h-17.74a1 1 0 0 1 0-2h17.18l7.94-13a1 1 0 0 1 1.37-.33 1 1 0 0 1 .33 1.38l-8.23 13.51a1 1 0 0 1 -.85.44z"/><circle cx="252.58" cy="119.55" r="3.55"/><path d="m252.58 124.1a4.55 4.55 0 1 1 4.55-4.55 4.55 4.55 0 0 1 -4.55 4.55zm0-7.09a2.55 2.55 0 1 0 2.55 2.54 2.54 2.54 0 0 0 -2.55-2.55z"/><circle cx="234.85" cy="97.47" r="3.55"/><path d="m234.85 102a4.55 4.55 0 1 1 4.55-4.55 4.55 4.55 0 0 1 -4.55 4.55zm0-7.09a2.55 2.55 0 1 0 2.55 2.54 2.55 2.55 0 0 0 -2.55-2.52z"/><circle cx="256.08" cy="158.97" r="3.55"/><path d="m256.08 163.52a4.55 4.55 0 1 1 4.54-4.54 4.55 4.55 0 0 1 -4.54 4.54zm0-7.09a2.55 2.55 0 1 0 2.54 2.55 2.55 2.55 0 0 0 -2.54-2.55z"/><circle cx="263.17" cy="145.02" r="3.55"/><path d="m263.17 149.57a4.55 4.55 0 1 1 4.54-4.55 4.55 4.55 0 0 1 -4.54 4.55zm0-7.09a2.55 2.55 0 1 0 2.54 2.54 2.55 2.55 0 0 0 -2.54-2.54z"/><path d="m256.08 160h-31.94a1 1 0 0 1 0-2h31.94a1 1 0 0 1 0 2z"/><path d="m216.06 127.15a1 1 0 0 1 -1-1v-16a1 1 0 0 1 .47-.85l18.8-11.54a1 1 0 0 1 1.37.32 1 1 0 0 1 -.33 1.38l-18.31 11.24v15.45a1 1 0 0 1 -1 1z"/><path d="m184.51 127.15a1 1 0 0 1 -.51-.15l-19-10.14a1 1 0 0 1 -.53-.88v-22.05a1 1 0 0 1 2 0v21.48l18.53 9.85a1 1 0 0 1 -.47 1.89z"/><path d="m167.84 136.4c-4.48 0-11.19-.05-21.26-.17a1 1 0 0 1 -1-1v-18a1 1 0 0 1 2 0v17c11 .13 26.8.23 28.49 0a1.27 1.27 0 0 1 .34-.05 1 1 0 0 1 .7 1.71c-.24.31-.44.51-9.27.51z"/><path d="m175 149h-45.32a1 1 0 0 1 0-2h45.32a1 1 0 0 1 0 2z"/><path d="m261.62 147h-37.48a1 1 0 0 1 0-2h37.48a1 1 0 0 1 0 2z"/><path d="m146.59 171.26a1 1 0 0 1 -.59-.2 1 1 0 0 1 -.21-1.4l8.41-11.28a1 1 0 0 1 .74-.4c13.62-.89 21.06-.84 22.11.14a1.18 1.18 0 0 1 .38.86 1 1 0 0 1 -1.77.64c-1.71-.5-11.33-.24-20.13.32l-8.13 10.92a1 1 0 0 1 -.81.4z"/><path d="m163 200.17a1 1 0 0 1 -1-1v-31.33a1 1 0 0 1 1-1h13.48a1 1 0 0 1 0 2h-12.48v30.33a1 1 0 0 1 -1 1z"/><path d="m216.06 189.11a1 1 0 0 1 -1-1v-14.26a1 1 0 1 1 2 0v14.26a1 1 0 0 1 -1 1z"/></g><path d="m198.32 142.06h-8.53a1 1 0 0 1 0-2h8.53a1 1 0 0 1 0 2z" fill="#ffbc0e"/></svg>