<svg fill="none" height="48" viewBox="0 0 48 48" width="48" xmlns="http://www.w3.org/2000/svg"><path clip-rule="evenodd" d="m0 0h48v48h-48zm12.8231 35.6633c.0929.0037.2025.006.3308.006 1.0412 0 2.0022.2504 2.807.8136.7996.5596 1.2792 1.3119 1.5647 2.0312.4233 1.0665.4892 2.2708.4988 3.1235.1709.0508.4152.1078.7519.1592 1.2965.198 3.1146.2032 5.2238.2032 2.1091 0 3.9272-.0052 5.2237-.2032.3367-.0514.581-.1084.7519-.1592.0096-.8527.0755-2.057.4988-3.1235.2855-.7193.7651-1.4716 1.5647-2.0312.8048-.5632 1.7658-.8136 2.807-.8136.1283 0 .2379-.0023.3308-.006.002-.1248.0015-.2703-.0012-.4423-.0029-.1836-.0089-.4048-.0157-.6547l-.0001-.0041v-.0007c-.0142-.5247-.0317-1.1748-.0317-1.8663 0-2.2035.7574-3.4657 1.3326-4.4243.1233-.2055.2382-.397.3356-.5809.5238-.9899 1.2035-2.6799 1.2036-7.204 0-4.2126-1.7174-7.2651-4.2539-9.3064-2.5867-2.08168-6.1218-3.17959-9.7461-3.17959-3.6244 0-7.1595 1.09791-9.7461 3.17959-2.5365 2.0413-4.254 5.0938-4.2539 9.3064 0 4.5241.6797 6.2141 1.2036 7.204.0973.1839.2122.3754.3355.5809.5753.9586 1.3326 2.2208 1.3327 4.4243 0 .6915-.0176 1.3416-.0318 1.8664v.0003c-.0068.2516-.0128.4744-.0158.6591-.0027.172-.0032.3175-.0012.4423zm-1.9811-1.2073c-.0705 2.5819-.0877 3.2133 2.3119 3.2133 2.8718 0 2.8718 2.7132 2.8718 4.5219 0 1.8088 3.8719 1.8088 7.9744 1.8088s7.9743 0 7.9743-1.8088c0-1.8087 0-4.5219 2.8718-4.5219 2.3996 0 2.3824-.6314 2.3119-3.2133v-.0001-.0001-.0001-.0001c-.0139-.508-.0298-1.0914-.0298-1.7604 0-1.6101.4495-2.3709.9929-3.2904.8299-1.4047 1.8788-3.1798 1.8789-8.9187 0-19.31477-32.00013-19.31477-32.00004 0 .00002 5.7389 1.04891 7.514 1.87889 8.9187.54335.9195.99285 1.6803.99295 3.2904 0 .6692-.016 1.2528-.0299 1.7608zm6.6596-1.956c2.4853 0 4.4997-2.1266 4.4994-4.75s-2.0152-4.75-4.5005-4.75-4.4998 2.1266-4.4995 4.75 2.0153 4.75 4.5006 4.75zm17.4985-4.75c-.0002 2.6234-2.0151 4.75-4.5004 4.75-2.4852 0-4.4998-2.1266-4.4996-4.75s2.0151-4.75 4.5004-4.75 4.4998 2.1266 4.4996 4.75zm-9.5938 10.25c.9211 0 1.5938-.8295 1.5938-1.7241 0-1.9971-3-3.2759-3-3.2759s-3 1.3611-3 3.2759c0 .8944.6725 1.7241 1.5937 1.7241.6392 0 1.1135-.3722 1.4063-.9002.2927.528.767.9002 1.4062.9002z" fill="#333" fill-rule="evenodd"/></svg>