<svg xmlns="http://www.w3.org/2000/svg" viewBox="0 0 132.292 128.236" height="484.672" width="500.001">
  <path d="M69.354 101.885l14.899-26.729.071 9.775 31.357-.071c5.603-.594 10.515-2.871 14.073-7.154-11.354 23.225-14.624 39.658-38.18 39.668h-7.249l-.071 10.861zm-35.89 15.725C16.7 112.513 8.878 91.859 1.211 77.305c3.514 3.195 10.091 7.769 13.911 7.769l21.979.046h22.195l-.071 32.395-.071.094zM0 68.842l10.714-21.853L.266 41.25h31.309l15.135 27.484-10.264-6.146-9.877 20.856-11.367-.199C7.815 81.523 2.675 75.709 0 68.842zm104.631 14.271L90.794 57.613l27.956-16.93 13.53 27.106c.41 6.487-10.064 15.514-16.565 15.444zM22.792 23.447L37.075 2.04c13.853-5.16 21.878 5.979 26.943 13.001L50.559 40.872zM76.91 34.969c-2.873-6.773-6.711-14.52-11.511-21.256C61.102 7.683 55.91 2.422 51.976.071L88.102 0c6.488.582 9.64 4.365 13.081 9.539l5.195 9.138 8.028-5.124-15.112 26.918-32.584.071z"/>
</svg>
